<svg width="140" height="62" viewBox="0 0 140 62" fill="none" xmlns="http://www.w3.org/2000/svg">
<path fill-rule="evenodd" clip-rule="evenodd" d="M48.5852 57.2332L48.1845 57.5769C47.9641 57.2555 47.6986 57.0115 47.3893 56.8455C47.0796 56.6793 46.7394 56.5965 46.3693 56.5965C45.9639 56.5965 45.5884 56.7052 45.2438 56.9222C44.8982 57.1403 44.6309 57.4322 44.441 57.7985C44.2511 58.1656 44.1562 58.5777 44.1562 59.0355C44.1562 59.7279 44.3684 60.3056 44.7931 60.7688C45.2179 61.2319 45.7531 61.4637 46.4002 61.4637C47.1113 61.4637 47.7062 61.1524 48.1845 60.5294L48.5852 60.8692C48.3324 61.2294 48.0162 61.508 47.6378 61.7048C47.2591 61.9017 46.8361 62.0003 46.3693 62.0003C45.4809 62.0003 44.7795 61.6692 44.2666 61.0081C43.8361 60.4499 43.6206 59.7751 43.6206 58.9855C43.6206 58.1541 43.8817 57.4552 44.4029 56.8877C44.9244 56.3205 45.5772 56.0369 46.3621 56.0369C46.8361 56.0369 47.2641 56.1416 47.6461 56.3514C48.0284 56.5609 48.3414 56.8549 48.5852 57.2332Z" fill="#048EA5"/>
<path fill-rule="evenodd" clip-rule="evenodd" d="M53.4961 56.1797H56.4066V56.7354H54.0036V58.5147H56.3861V59.0704H54.0036V61.301H56.3861V61.857H53.4961V56.1797Z" fill="#048EA5"/>
<path fill-rule="evenodd" clip-rule="evenodd" d="M61.1758 61.857V56.1797H61.2862L64.6661 60.5315V56.1797H65.1667V61.857H65.0524L61.7005 57.5581V61.857H61.1758Z" fill="#048EA5"/>
<path fill-rule="evenodd" clip-rule="evenodd" d="M69.7871 56.7354V56.1797H72.5696V56.7354H71.4373V61.857H70.9197V56.7354H69.7871Z" fill="#048EA5"/>
<path fill-rule="evenodd" clip-rule="evenodd" d="M77.1934 56.1797H80.1035V56.7354H77.7005V58.5147H80.0834V59.0704H77.7005V61.301H80.0834V61.857H77.1934V56.1797Z" fill="#048EA5"/>
<path fill-rule="evenodd" clip-rule="evenodd" d="M85.4048 56.7354V58.6651L86.2796 58.673C86.618 58.673 86.8687 58.637 87.0317 58.5651C87.1939 58.4927 87.3212 58.3779 87.4118 58.2196C87.5035 58.0616 87.5492 57.8845 87.5492 57.6887C87.5492 57.4983 87.5028 57.3252 87.4104 57.1694C87.318 57.0139 87.1971 56.9027 87.0478 56.8358C86.8971 56.7688 86.6486 56.7354 86.3008 56.7354H85.4048ZM84.897 56.1797H85.9087C86.4731 56.1797 86.855 56.2052 87.055 56.2567C87.3564 56.3341 87.6014 56.4993 87.7906 56.7534C87.9794 57.0071 88.0733 57.3195 88.0733 57.6909C88.0733 57.9993 88.0089 58.2718 87.878 58.506C87.7485 58.7407 87.5629 58.9178 87.3212 59.0372C87.0795 59.1574 86.7457 59.2186 86.3195 59.2208L88.1459 61.857H87.5183L85.6915 59.2208H85.4048V61.857H84.897V56.1797Z" fill="#048EA5"/>
<path fill-rule="evenodd" clip-rule="evenodd" d="M92.5244 60.7997L92.9557 60.5103C93.2592 61.1351 93.6106 61.4482 94.0088 61.4482C94.1796 61.4482 94.3386 61.4036 94.4893 61.3151C94.6386 61.2258 94.7519 61.1071 94.8303 60.9584C94.9087 60.8083 94.9479 60.6503 94.9479 60.483C94.9479 60.2926 94.8907 60.1065 94.7756 59.9234C94.6163 59.6711 94.3268 59.3677 93.9052 59.0128C93.4815 58.6551 93.2182 58.3967 93.1146 58.2373C92.9355 57.9691 92.8456 57.6798 92.8456 57.3688C92.8456 57.1216 92.8985 56.8963 93.0046 56.6926C93.11 56.49 93.2592 56.3295 93.4513 56.2125C93.643 56.0955 93.852 56.0369 94.0782 56.0369C94.3174 56.0369 94.5415 56.1027 94.7497 56.2359C94.958 56.368 95.1781 56.612 95.4112 56.9672L94.9961 57.3181C94.8048 57.0352 94.6425 56.8484 94.5077 56.7588C94.3731 56.6685 94.2264 56.6231 94.0678 56.6231C93.8631 56.6231 93.6955 56.6926 93.5657 56.8315C93.4348 56.9704 93.3707 57.1421 93.3707 57.3454C93.3707 57.4685 93.393 57.5884 93.4391 57.7043C93.4855 57.8201 93.5696 57.9461 93.6912 58.0829C93.7585 58.1541 93.9764 58.3438 94.3473 58.6497C94.7868 59.0128 95.0882 59.3357 95.2518 59.6185C95.4148 59.9014 95.4968 60.1861 95.4968 60.4718C95.4968 60.8832 95.3572 61.2409 95.0778 61.5447C94.7979 61.8484 94.458 62.0003 94.057 62.0003C93.7484 62.0003 93.4693 61.9078 93.2182 61.7243C92.9672 61.54 92.7359 61.2319 92.5244 60.7997Z" fill="#048EA5"/>
<path fill-rule="evenodd" clip-rule="evenodd" d="M5.21122 39.7308L5.6306 39.2205L14.5355 46.7376V39.2205H15.1915V48.1415L5.21122 39.7308ZM14.8437 51.2614L14.4243 51.7725L5.53349 44.2557V51.7725H4.87744V42.8511L14.8437 51.2614Z" fill="white"/>
<path d="M5.21122 39.7308L5.00656 39.5626L4.84044 39.7647L5.04051 39.9334L5.21122 39.7308ZM5.6306 39.2205L5.80148 39.018L5.59637 38.8449L5.42594 39.0523L5.6306 39.2205ZM14.5355 46.7376L14.3646 46.94L14.8004 47.3078V46.7376H14.5355ZM14.5355 39.2205V38.9556H14.2706V39.2205H14.5355ZM15.1915 39.2205H15.4564V38.9556H15.1915V39.2205ZM15.1915 48.1415L15.0208 48.3441L15.4564 48.7112V48.1415H15.1915ZM14.8437 51.2614L15.0485 51.4295L15.2142 51.2275L15.0146 51.059L14.8437 51.2614ZM14.4243 51.7725L14.2533 51.9748L14.4586 52.1483L14.6291 51.9405L14.4243 51.7725ZM5.53349 44.2557L5.70452 44.0534L5.26859 43.6849V44.2557H5.53349ZM5.53349 51.7725V52.0374H5.79839V51.7725H5.53349ZM4.87744 51.7725H4.61254V52.0374H4.87744V51.7725ZM4.87744 42.8511L5.04828 42.6486L4.61254 42.2809V42.8511H4.87744ZM5.41588 39.899L5.83526 39.3886L5.42594 39.0523L5.00656 39.5626L5.41588 39.899ZM5.45973 39.4229L14.3646 46.94L14.7063 46.5351L5.80148 39.018L5.45973 39.4229ZM14.8004 46.7376V39.2205H14.2706V46.7376H14.8004ZM14.5355 39.4854H15.1915V38.9556H14.5355V39.4854ZM14.9266 39.2205V48.1415H15.4564V39.2205H14.9266ZM15.3622 47.9389L5.38193 39.5282L5.04051 39.9334L15.0208 48.3441L15.3622 47.9389ZM14.6389 51.0934L14.2196 51.6044L14.6291 51.9405L15.0485 51.4295L14.6389 51.0934ZM14.5954 51.5702L5.70452 44.0534L5.36246 44.458L14.2533 51.9748L14.5954 51.5702ZM5.26859 44.2557V51.7725H5.79839V44.2557H5.26859ZM5.53349 51.5076H4.87744V52.0374H5.53349V51.5076ZM5.14234 51.7725V42.8511H4.61254V51.7725H5.14234ZM4.7066 43.0535L14.6729 51.4639L15.0146 51.059L5.04828 42.6486L4.7066 43.0535Z" fill="#088EA4"/>
<path fill-rule="evenodd" clip-rule="evenodd" d="M55.0741 48.2759L49.7531 43.8999V51.7265H49.0967V42.4963L55.0741 47.4193L61.0512 42.4963V51.7265H60.3955V43.8999L55.0741 48.2759Z" fill="white"/>
<path fill-rule="evenodd" clip-rule="evenodd" d="M55.0741 48.2759L49.7531 43.8999V51.7265H49.0967V42.4963L55.0741 47.4193L61.0512 42.4963V51.7265H60.3955V43.8999L55.0741 48.2759Z" stroke="#51312A" stroke-width="0.529803"/>
<path fill-rule="evenodd" clip-rule="evenodd" d="M49.6982 39.7392L50.118 39.2468L55.074 43.3125L60.0307 39.2468L60.4504 39.7392L55.074 44.1882L49.6982 39.7392Z" fill="white"/>
<path fill-rule="evenodd" clip-rule="evenodd" d="M49.6982 39.7392L50.118 39.2468L55.074 43.3125L60.0307 39.2468L60.4504 39.7392L55.074 44.1882L49.6982 39.7392Z" stroke="#088EA4" stroke-width="0.529803"/>
<path fill-rule="evenodd" clip-rule="evenodd" d="M0 52.0441H1.30814V38.9482H0V52.0441Z" fill="#088EA4"/>
<path fill-rule="evenodd" clip-rule="evenodd" d="M17.2959 40.2302V38.9482H24.4678V40.2302H21.5491V52.0441H20.2147V40.2302H17.2959Z" fill="#088EA4"/>
<path fill-rule="evenodd" clip-rule="evenodd" d="M27.2104 38.9485H34.7119V40.2304H28.5186V44.3339H34.6583V45.6166H28.5186V50.7634H34.6583V52.0443H27.2104V38.9485Z" fill="#088EA4"/>
<path fill-rule="evenodd" clip-rule="evenodd" d="M39.1979 40.2302V44.6814L41.4527 44.6986C42.3264 44.6986 42.9724 44.6162 43.3917 44.4503C43.81 44.284 44.137 44.0184 44.3719 43.6524C44.6064 43.2878 44.7236 42.8801 44.7236 42.4288C44.7236 41.9901 44.6053 41.5909 44.3672 41.2314C44.1298 40.8715 43.818 40.6164 43.4317 40.4609C43.0454 40.3065 42.4037 40.2302 41.5067 40.2302H39.1979ZM37.8901 38.9482H40.4974C41.9505 38.9482 42.9357 39.0069 43.4518 39.1257C44.2287 39.3038 44.8603 39.6857 45.3469 40.2716C45.8332 40.8568 46.0764 41.5773 46.0764 42.4327C46.0764 43.1464 45.9088 43.7737 45.5739 44.3139C45.2387 44.8552 44.7596 45.2637 44.1366 45.5393C43.5137 45.8161 42.6533 45.9579 41.5563 45.9637L46.2634 52.0441H44.6449L39.9378 45.9637H39.1979V52.0441H37.8901V38.9482Z" fill="#088EA4"/>
<path fill-rule="evenodd" clip-rule="evenodd" d="M70.3065 39.8911C69.3371 39.8911 68.4192 40.1441 67.5528 40.6494C66.6852 41.154 66.0076 41.8345 65.5203 42.6896C65.0325 43.5451 64.7894 44.4974 64.7894 45.5501C64.7894 47.1059 65.3285 48.4202 66.4069 49.492C67.4855 50.5641 68.7847 51.1004 70.3065 51.1004C71.3218 51.1004 72.2627 50.8549 73.127 50.3608C73.9917 49.8681 74.6661 49.194 75.1506 48.3385C75.6344 47.4838 75.8771 46.5326 75.8771 45.4871C75.8771 44.4474 75.6344 43.5077 75.1506 42.667C74.6661 41.8266 73.9842 41.154 73.1055 40.6494C72.2253 40.1441 71.2923 39.8911 70.3065 39.8911ZM70.2489 38.6182C72.2304 38.6182 73.8899 39.28 75.2254 40.6037C76.5609 41.927 77.2292 43.557 77.2292 45.4914C77.2292 47.4093 76.563 49.0346 75.2304 50.3705C73.8982 51.7053 72.2732 52.3744 70.3554 52.3744C68.4139 52.3744 66.7762 51.7086 65.4397 50.3802C64.1046 49.05 63.437 47.4417 63.437 45.5537C63.437 44.2958 63.7409 43.1294 64.3495 42.0548C64.9574 40.9801 65.7871 40.1391 66.8378 39.5312C67.8884 38.9223 69.0249 38.6182 70.2489 38.6182Z" fill="#088EA4"/>
<path fill-rule="evenodd" clip-rule="evenodd" d="M79.8984 38.9485H81.2066V46.8543C81.2066 47.7918 81.2242 48.3763 81.2595 48.608C81.3249 49.1245 81.4767 49.5564 81.7137 49.9037C81.9504 50.251 82.3158 50.5414 82.8082 50.7764C83.3006 51.01 83.7955 51.1284 84.2948 51.1284C84.7271 51.1284 85.1422 51.0362 85.5396 50.8513C85.9374 50.6677 86.2694 50.4125 86.5366 50.0858C86.8031 49.7597 86.9995 49.3645 87.1233 48.9021C87.2128 48.5695 87.2578 47.8875 87.2578 46.8543V38.9485H88.5652V46.8543C88.5652 48.0243 88.4512 48.969 88.2224 49.6892C87.9937 50.4107 87.5376 51.0391 86.8524 51.5728C86.1676 52.1066 85.3382 52.3743 84.3653 52.3743C83.3089 52.3743 82.4043 52.1217 81.6515 51.6182C80.898 51.1133 80.3937 50.4453 80.1387 49.6139C79.9786 49.1036 79.8984 48.1837 79.8984 46.8543V38.9485Z" fill="#088EA4"/>
<path fill-rule="evenodd" clip-rule="evenodd" d="M103.968 40.2302V38.9482H111.141V40.2302H108.221V52.0441H106.887V40.2302H103.968Z" fill="#088EA4"/>
<path fill-rule="evenodd" clip-rule="evenodd" d="M117.361 41.7299L115.118 46.4711H119.594L117.361 41.7299ZM117.527 38.9482L123.631 52.0444H122.217L120.159 47.7358H114.521L112.481 52.0444H111.021L117.206 38.9482H117.527Z" fill="#088EA4"/>
<path fill-rule="evenodd" clip-rule="evenodd" d="M125.048 52.0441H126.356V38.9482H125.048V52.0441Z" fill="#018EA5"/>
<path fill-rule="evenodd" clip-rule="evenodd" d="M92.1664 39.7308L92.5858 39.2205L101.223 46.3136V39.2205H101.879V47.7176L92.1664 39.7308ZM101.278 51.2614L100.859 51.7725L92.2211 44.6797V51.7725H91.5654V43.2754L101.278 51.2614Z" fill="white"/>
<path d="M92.1664 39.7308L91.9618 39.5626L91.7937 39.7672L91.9982 39.9354L92.1664 39.7308ZM92.5858 39.2205L92.754 39.0157L92.5493 38.8477L92.3812 39.0523L92.5858 39.2205ZM101.223 46.3136L101.055 46.5183L101.488 46.8739V46.3136H101.223ZM101.223 39.2205V38.9556H100.958V39.2205H101.223ZM101.879 39.2205H102.144V38.9556H101.879V39.2205ZM101.879 47.7176L101.711 47.9222L102.144 48.2783V47.7176H101.879ZM101.278 51.2614L101.483 51.4295L101.651 51.2249L101.446 51.0568L101.278 51.2614ZM100.859 51.7725L100.691 51.9772L100.895 52.1454L101.064 51.9405L100.859 51.7725ZM92.2211 44.6797L92.3892 44.475L91.9562 44.1194V44.6797H92.2211ZM92.2211 51.7725V52.0374H92.486V51.7725H92.2211ZM91.5654 51.7725H91.3005V52.0374H91.5654V51.7725ZM91.5654 43.2754L91.7337 43.0708L91.3005 42.7146V43.2754H91.5654ZM92.3711 39.899L92.7905 39.3886L92.3812 39.0523L91.9618 39.5626L92.3711 39.899ZM92.4177 39.4252L101.055 46.5183L101.391 46.1089L92.754 39.0157L92.4177 39.4252ZM101.488 46.3136V39.2205H100.958V46.3136H101.488ZM101.223 39.4854H101.879V38.9556H101.223V39.4854ZM101.614 39.2205V47.7176H102.144V39.2205H101.614ZM102.047 47.5129L92.3347 39.5262L91.9982 39.9354L101.711 47.9222L102.047 47.5129ZM101.073 51.0934L100.654 51.6044L101.064 51.9405L101.483 51.4295L101.073 51.0934ZM101.027 51.5678L92.3892 44.475L92.053 44.8844L100.691 51.9772L101.027 51.5678ZM91.9562 44.6797V51.7725H92.486V44.6797H91.9562ZM92.2211 51.5076H91.5654V52.0374H92.2211V51.5076ZM91.8303 51.7725V43.2754H91.3005V51.7725H91.8303ZM91.3972 43.48L101.11 51.466L101.446 51.0568L91.7337 43.0708L91.3972 43.48Z" fill="#088EA4"/>
<path fill-rule="evenodd" clip-rule="evenodd" d="M130.022 39.7308L130.442 39.2205L139.08 46.3136V39.2205H139.735V47.7176L130.022 39.7308ZM139.134 51.2614L138.715 51.7725L130.077 44.6797V51.7725H129.421V43.2754L139.134 51.2614Z" fill="white"/>
<path d="M130.022 39.7308L129.818 39.5626L129.65 39.7672L129.854 39.9354L130.022 39.7308ZM130.442 39.2205L130.61 39.0157L130.405 38.8477L130.237 39.0523L130.442 39.2205ZM139.08 46.3136L138.912 46.5183L139.345 46.8739V46.3136H139.08ZM139.08 39.2205V38.9556H138.815V39.2205H139.08ZM139.735 39.2205H140V38.9556H139.735V39.2205ZM139.735 47.7176L139.567 47.9222L140 48.2783V47.7176H139.735ZM139.134 51.2614L139.339 51.4296L139.507 51.225L139.303 51.0568L139.134 51.2614ZM138.715 51.7725L138.547 51.9772L138.751 52.1453L138.919 51.9406L138.715 51.7725ZM130.077 44.6797L130.245 44.475L129.812 44.1194V44.6797H130.077ZM130.077 51.7725V52.0374H130.342V51.7725H130.077ZM129.421 51.7725H129.156V52.0374H129.421V51.7725ZM129.421 43.2754L129.59 43.0708L129.156 42.7146V43.2754H129.421ZM130.227 39.899L130.646 39.3886L130.237 39.0523L129.818 39.5626L130.227 39.899ZM130.274 39.4252L138.912 46.5183L139.248 46.1089L130.61 39.0157L130.274 39.4252ZM139.345 46.3136V39.2205H138.815V46.3136H139.345ZM139.08 39.4854H139.735V38.9556H139.08V39.4854ZM139.47 39.2205V47.7176H140V39.2205H139.47ZM139.903 47.5129L130.191 39.5262L129.854 39.9354L139.567 47.9222L139.903 47.5129ZM138.93 51.0933L138.51 51.6043L138.919 51.9406L139.339 51.4296L138.93 51.0933ZM138.883 51.5678L130.245 44.475L129.909 44.8844L138.547 51.9772L138.883 51.5678ZM129.812 44.6797V51.7725H130.342V44.6797H129.812ZM130.077 51.5076H129.421V52.0374H130.077V51.5076ZM129.686 51.7725V43.2754H129.156V51.7725H129.686ZM129.253 43.48L138.966 51.466L139.303 51.0568L129.59 43.0708L129.253 43.48Z" fill="#088EA4"/>
<path fill-rule="evenodd" clip-rule="evenodd" d="M71.4037 0.714823C70.9343 0.747574 70.4642 0.776365 69.9941 0.788962C67.4328 0.858781 64.8878 0.586341 62.3398 0.377963C62.0931 0.357809 61.7748 0.332616 61.4111 0.310303L66.6541 4.61103L71.4037 0.714823Z" fill="#51312A"/>
<path fill-rule="evenodd" clip-rule="evenodd" d="M66.5506 11.3843L58.9647 5.10596L59.5552 4.41172L66.5506 10.1492L73.5456 4.41172L74.1365 5.10596L66.5506 11.3843ZM93.2925 17.0721C92.7897 16.4153 92.3372 15.7271 92.0268 14.9555C91.9995 14.8875 91.9707 14.8047 91.9854 14.7374C92.1538 13.9486 91.9995 13.1996 91.7222 12.4643C91.4812 11.8252 91.1413 11.2396 90.7557 10.6789C90.6021 10.4547 90.8618 9.66294 90.9593 9.46787C91.0352 9.31564 91.1395 9.1778 91.2348 9.03564C91.2967 8.94279 91.5362 8.85389 91.451 8.73117C90.9204 7.97611 90.1964 8.72253 89.7785 8.72973C89.558 8.73297 89.3674 8.67539 89.1886 8.52387C87.2259 6.86584 85.2523 5.21825 83.2888 3.56273C81.7415 2.25848 81.5494 2.13108 79.9226 0.918953C79.1166 0.31901 77.0222 -0.238825 76.0964 0.105593C75.904 0.177572 75.7151 0.202765 75.5313 0.207803L66.6538 7.5536L57.9691 0.367236C56.6293 0.511914 55.2111 0.835458 53.9792 1.50306C52.4024 2.35709 50.7604 3.05492 49.3498 4.17815C46.9072 6.1205 45.6674 8.65451 45.5987 11.7723C45.5703 13.0531 45.6948 14.3203 45.9228 15.5789C45.9929 15.9676 46.0469 16.3552 46.2634 16.7143C47.9345 19.4898 49.3832 22.3762 50.4921 25.4259C50.6475 25.8546 50.8306 26.2792 50.927 26.7223C51.0881 27.4647 51.1921 28.2198 51.3118 28.9705C51.332 29.0954 51.3791 29.139 51.5025 29.1508C51.7992 29.1767 52.0938 29.221 52.3905 29.252C53.1915 29.3326 53.9918 29.4182 54.7938 29.4834C54.9845 29.4996 56.1865 29.4542 56.3289 29.4819C56.5696 29.5291 58.3327 29.7011 58.8521 29.56C59.2769 29.4449 59.6743 29.2707 60.1386 29.2955C60.4631 29.3128 60.663 28.9137 60.5393 28.6113C60.3375 28.1136 59.9969 27.7433 59.5178 27.504C59.265 27.3769 59.0179 27.3467 58.7348 27.4604C58.0971 27.7174 57.5734 27.5083 57.2483 26.899C57.1889 26.7881 57.1404 26.6694 57.0969 26.5517C56.9113 26.0421 56.8713 25.5101 56.8667 24.9739C56.858 23.9011 66.5243 12.1199 74.4225 29.894C74.4732 29.9545 74.5649 30.0034 74.6444 30.0149C75.9122 30.2042 77.1815 30.3691 78.4659 30.3784C79.2752 30.3838 80.078 30.3381 80.8571 30.1038C81.2268 29.9923 81.5797 29.8429 81.8933 29.6086C81.8491 29.5194 81.8048 29.4477 81.7771 29.3714C81.6858 29.1138 81.5023 28.9522 81.2696 28.8129C80.5021 28.3551 79.7521 27.8682 78.981 27.414C78.4587 27.1052 78.1174 26.6589 77.889 26.1144C77.6916 25.6401 77.6261 25.1362 77.5847 24.6288C77.5344 24.0015 77.4466 23.386 77.2186 22.7901C77.0168 22.2617 76.906 21.7064 76.8877 21.136C76.8636 20.3727 77.0344 19.6745 77.5682 19.0997C78.035 18.5977 78.6343 18.3353 79.2867 18.1838C80.2079 17.9696 81.138 17.9866 82.0695 18.0913C82.3361 18.1208 82.6299 18.1348 82.8587 18.2568C83.7827 18.7467 84.7423 19.1375 85.7638 19.3585C86.804 19.5838 87.8535 19.7662 88.8962 19.9804C89.0548 20.0128 89.1221 19.9753 89.1875 19.8411C89.2814 19.6496 89.3936 19.4679 89.499 19.2807C89.5868 19.3088 89.6526 19.3297 89.7188 19.3513C90.5579 19.6259 91.4139 19.7727 92.3023 19.6701C92.5893 19.637 92.8328 19.5669 93.026 19.325C93.2378 19.0569 93.49 18.8215 93.7245 18.5717C93.8648 18.4217 94.0057 18.2702 94.141 18.1248C93.8486 17.7634 93.5623 17.4244 93.2925 17.0721Z" fill="#51312A"/>
</svg>
