<svg width="28" height="28" viewBox="0 0 28 28" fill="none" xmlns="http://www.w3.org/2000/svg">
<path d="M14.1253 5.69148L14.1257 5.6917L17.7307 7.76837L21.3353 9.84481C21.3354 9.84489 21.3355 9.84496 21.3357 9.84504C23.4549 11.068 24.3776 12.5962 24.3776 13.9998C24.3776 15.4035 23.4547 16.9319 21.3353 18.1549L17.7307 20.2313L14.1257 22.308L14.1253 22.3082C12.0056 23.5313 10.2218 23.5657 9.00734 22.864C7.79278 22.1622 6.93161 20.5994 6.93161 18.1532V13.9998V9.8465C6.93161 7.4003 7.79278 5.83745 9.00734 5.13567C10.2218 4.43395 12.0056 4.46839 14.1253 5.69148Z" stroke="#008EA5" stroke-width="1.23529" stroke-linecap="round" stroke-linejoin="round"/>
</svg>
