<svg width="32" height="32" viewBox="0 0 32 32" fill="none" xmlns="http://www.w3.org/2000/svg">
<circle opacity="0.4" cx="16" cy="16" r="15.5" stroke="#363636"/>
<path fill-rule="evenodd" clip-rule="evenodd" d="M10.7398 11.4091C9.77774 11.4091 9 10.6448 9 9.70386C9 8.76295 9.77913 8 10.7398 8C11.6984 8 12.4783 8.76432 12.4783 9.70386C12.4783 10.6448 11.6984 11.4091 10.7398 11.4091ZM12.4783 23H9V12.7727H12.4783V23ZM21.656 23H25V17.3866C25 14.6307 24.3739 12.5109 20.9861 12.5109C19.3583 12.5109 18.2668 13.3591 17.8202 14.1636H17.775V12.7652H14.5652V23H17.9085V17.9368C17.9085 16.6018 18.1763 15.3091 19.9176 15.3091C21.633 15.3091 21.656 16.8357 21.656 18.0227V23Z" fill="black"/>
</svg>
