<svg width="18" height="18" viewBox="0 0 18 18" fill="none" xmlns="http://www.w3.org/2000/svg">
<path d="M16.29 15.565C16.1625 15.835 15.9975 16.09 15.78 16.33C15.4125 16.735 15.0075 17.0275 14.55 17.215C14.1 17.4025 13.6125 17.5 13.0875 17.5C12.3225 17.5 11.505 17.32 10.6425 16.9525C9.78 16.585 8.9175 16.09 8.0625 15.4675C7.2 14.8375 6.3825 14.14 5.6025 13.3675C4.83 12.5875 4.1325 11.77 3.51 10.915C2.895 10.06 2.4 9.205 2.04 8.3575C1.68 7.5025 1.5 6.685 1.5 5.905C1.5 5.395 1.59 4.9075 1.77 4.4575C1.95 4 2.235 3.58 2.6325 3.205C3.1125 2.7325 3.6375 2.5 4.1925 2.5C4.4025 2.5 4.6125 2.545 4.8 2.635C4.995 2.725 5.1675 2.86 5.3025 3.055L7.0425 5.5075C7.1775 5.695 7.275 5.8675 7.3425 6.0325C7.41 6.19 7.4475 6.3475 7.4475 6.49C7.4475 6.67 7.395 6.85 7.29 7.0225C7.1925 7.195 7.05 7.375 6.87 7.555L6.3 8.1475C6.2175 8.23 6.18 8.3275 6.18 8.4475C6.18 8.5075 6.1875 8.56 6.2025 8.62C6.225 8.68 6.2475 8.725 6.2625 8.77C6.3975 9.0175 6.63 9.34 6.96 9.73C7.2975 10.12 7.6575 10.5175 8.0475 10.915C8.4525 11.3125 8.8425 11.68 9.24 12.0175C9.63 12.3475 9.9525 12.5725 10.2075 12.7075C10.245 12.7225 10.29 12.745 10.3425 12.7675C10.4025 12.79 10.4625 12.7975 10.53 12.7975C10.6575 12.7975 10.755 12.7525 10.8375 12.67L11.4075 12.1075C11.595 11.92 11.775 11.7775 11.9475 11.6875C12.12 11.5825 12.2925 11.53 12.48 11.53C12.6225 11.53 12.7725 11.56 12.9375 11.6275C13.1025 11.695 13.275 11.7925 13.4625 11.92L15.945 13.6825C16.14 13.8175 16.275 13.975 16.3575 14.1625C16.4325 14.35 16.4775 14.5375 16.4775 14.7475C16.4775 15.0175 16.4175 15.295 16.29 15.565Z" stroke="#CB6232"/>
<path d="M13.875 7.75C13.875 7.3 13.5225 6.61 12.9975 6.0475C12.5175 5.53 11.88 5.125 11.25 5.125" stroke="#CB6232" stroke-linecap="round" stroke-linejoin="round"/>
<path d="M16.5 7.75C16.5 4.8475 14.1525 2.5 11.25 2.5" stroke="#CB6232" stroke-linecap="round" stroke-linejoin="round"/>
</svg>
