<svg width="32" height="32" viewBox="0 0 32 32" fill="none" xmlns="http://www.w3.org/2000/svg">
<circle opacity="0.4" cx="16" cy="16" r="15.5" stroke="#363636"/>
<path d="M26 10.7755C25.3375 11.0772 24.6258 11.2803 23.8789 11.3719C24.6417 10.9033 25.2267 10.1614 25.5023 9.27687C24.7892 9.71063 23.9986 10.0258 23.1568 10.1962C22.4832 9.46003 21.5237 9 20.4618 9C18.4223 9 16.7691 10.696 16.7691 12.7867C16.7691 13.0835 16.8024 13.3731 16.8647 13.6493C13.7958 13.4917 11.0751 11.9838 9.25303 9.69218C8.93596 10.2516 8.75389 10.9019 8.75389 11.5969C8.75389 12.9103 9.40533 14.0696 10.396 14.7483C9.79093 14.7284 9.22118 14.558 8.72343 14.2747C8.72343 14.2911 8.72343 14.306 8.72343 14.3223C8.72343 16.1575 9.99585 17.6881 11.6857 18.0352C11.3763 18.1218 11.0495 18.168 10.7124 18.168C10.4749 18.168 10.243 18.1438 10.018 18.1005C10.4881 19.6049 11.8519 20.7003 13.4676 20.7308C12.2042 21.7467 10.612 22.3523 8.88127 22.3523C8.58359 22.3523 8.28937 22.3345 8 22.299C9.63448 23.3731 11.5749 24 13.6608 24C20.4534 24 24.1668 18.2297 24.1668 13.2255C24.1668 13.0615 24.1634 12.8982 24.1565 12.7356C24.8785 12.2011 25.505 11.5344 26 10.7755Z" fill="black"/>
</svg>
