<svg width="32" height="32" viewBox="0 0 32 32" fill="none" xmlns="http://www.w3.org/2000/svg">
<circle opacity="0.4" cx="16" cy="16" r="15.5" stroke="#363636"/>
<path fill-rule="evenodd" clip-rule="evenodd" d="M10.6699 5C10.2679 5 9.97503 5.38253 10.082 5.76953L11.3496 10.3438H11.3477V12.2656C11.3477 12.6196 11.6343 12.9062 11.9883 12.9062C12.3423 12.9062 12.6309 12.6196 12.6309 12.2656V10.3438L13.9121 5.77148C14.0211 5.38348 13.7292 5 13.3262 5C13.0412 5 12.7934 5.19756 12.7324 5.47656L12.3008 7.43164C12.1498 8.14164 12.0528 8.64627 12.0098 8.94727H11.9707C11.9077 8.52727 11.8117 8.01888 11.6797 7.42188L11.2637 5.48047C11.2037 5.19947 10.9569 5 10.6699 5ZM15.6211 7.01758C15.1871 7.01758 14.8373 7.10239 14.5703 7.27539C14.3033 7.44739 14.1084 7.72261 13.9824 8.09961C13.8574 8.47661 13.7949 8.97566 13.7949 9.59766V10.4375C13.7949 11.0525 13.849 11.545 13.959 11.916C14.069 12.287 14.2546 12.5603 14.5156 12.7363C14.7766 12.9123 15.1357 13 15.5938 13C16.0398 13 16.3933 12.9132 16.6543 12.7402C16.9143 12.5672 17.1027 12.2959 17.2188 11.9219C17.3348 11.5479 17.3926 11.0535 17.3926 10.4375V9.59766C17.3926 8.97666 17.3338 8.47947 17.2148 8.10547C17.0958 7.73247 16.9064 7.45725 16.6484 7.28125C16.3904 7.10525 16.0481 7.01758 15.6211 7.01758ZM18.0684 7.7793C18.0684 7.4203 18.3598 7.13086 18.7188 7.13086C19.0778 7.13086 19.3691 7.4203 19.3691 7.7793V11.3691C19.3691 11.6271 19.3961 11.8119 19.4531 11.9219C19.5101 12.0319 19.6043 12.0859 19.7363 12.0859C19.8493 12.0859 19.9585 12.0524 20.0625 11.9824C20.1665 11.9134 20.243 11.8257 20.293 11.7188V7.7793C20.293 7.4203 20.5844 7.13086 20.9434 7.13086C21.3014 7.13086 21.5918 7.4203 21.5918 7.7793V12.3574C21.5918 12.6604 21.346 12.9062 21.043 12.9062C20.773 12.9062 20.544 12.7094 20.502 12.4434L20.4629 12.1992H20.4336C20.1566 12.7322 19.7415 13 19.1895 13C18.8065 13 18.5238 12.874 18.3418 12.623C18.1598 12.372 18.0684 11.9793 18.0684 11.4453V7.7793ZM15.5938 7.91211C15.7758 7.91211 15.9046 8.00722 15.9766 8.19922C16.0486 8.39022 16.084 8.69438 16.084 9.10938V10.9082C16.084 11.3352 16.0486 11.644 15.9766 11.832C15.9046 12.02 15.7767 12.1142 15.5957 12.1152C15.4137 12.1152 15.2878 12.02 15.2188 11.832C15.1488 11.644 15.1133 11.3352 15.1133 10.9082V9.10938C15.1133 8.69537 15.1507 8.39122 15.2227 8.19922C15.2947 8.00822 15.4178 7.91211 15.5938 7.91211ZM7 16C7 14.9 7.9 14 9 14H23C24.1 14 25 14.9 25 16V23C25 24.1 24.1 25 23 25H9C7.9 25 7 24.1 7 23V16ZM16.5762 16C16.8682 16 17.1055 16.2373 17.1055 16.5293V18.5684H17.1133C17.2083 18.3824 17.3445 18.2331 17.5195 18.1191C17.6945 18.0051 17.8839 17.9492 18.0859 17.9492C18.3459 17.9492 18.5493 18.0183 18.6973 18.1562C18.8453 18.2942 18.9535 18.5172 19.0195 18.8242C19.0855 19.1322 19.1172 19.5595 19.1172 20.1055V20.877H19.1191C19.1191 21.604 19.0305 22.1365 18.8555 22.4785C18.6805 22.8205 18.4081 22.9922 18.0371 22.9922C17.8301 22.9922 17.6427 22.9446 17.4727 22.8496C17.3027 22.7546 17.1748 22.624 17.0898 22.459H17.0664L17.0488 22.5312C16.9938 22.7593 16.7887 22.9199 16.5547 22.9199C16.2747 22.9199 16.0488 22.6921 16.0488 22.4121V16.5293C16.0488 16.2373 16.2842 16 16.5762 16ZM12.2969 16.248H9.92773C9.68473 16.248 9.48633 16.4455 9.48633 16.6895C9.48633 16.9325 9.68373 17.1309 9.92773 17.1309H10.5742V22.3828C10.5742 22.6798 10.8143 22.9199 11.1113 22.9199C11.4083 22.9199 11.6484 22.6808 11.6484 22.3848V17.1309H12.2969C12.5399 17.1309 12.7383 16.9335 12.7383 16.6895C12.7383 16.4465 12.5409 16.248 12.2969 16.248ZM21.0957 17.9512C21.4717 17.9512 21.7609 18.0202 21.9629 18.1582C22.1639 18.2962 22.3057 18.5117 22.3887 18.8027C22.4707 19.0947 22.5117 19.4977 22.5117 20.0117V20.2949H22.5137C22.5137 20.5999 22.2659 20.8477 21.9609 20.8477H20.6777V21.0957C20.6777 21.4087 20.6861 21.6428 20.7051 21.7988C20.7241 21.9548 20.7623 22.0696 20.8203 22.1406C20.8783 22.2126 20.9678 22.248 21.0898 22.248C21.2538 22.248 21.3667 22.1836 21.4277 22.0566C21.4547 21.9996 21.4762 21.924 21.4922 21.832C21.5332 21.598 21.7474 21.4333 21.9844 21.4473C22.2684 21.4643 22.4798 21.7288 22.4238 22.0078C22.3678 22.2848 22.2653 22.5231 22.1113 22.6621C21.8643 22.8851 21.5155 22.9961 21.0645 22.9961C20.5235 22.9961 20.1457 22.8253 19.9277 22.4863C19.7097 22.1473 19.6016 21.6231 19.6016 20.9121V20.0605C19.6016 19.3285 19.7145 18.794 19.9395 18.457C20.1645 18.12 20.5497 17.9512 21.0957 17.9512ZM13.5098 18.5938C13.5098 18.2907 13.2639 18.0449 12.9609 18.0449C12.6579 18.0449 12.4102 18.2907 12.4102 18.5938V21.6875C12.4102 22.1375 12.4886 22.4696 12.6426 22.6816C12.7966 22.8936 13.0334 23 13.3574 23C13.8244 23 14.1752 22.7752 14.4082 22.3242H14.4316L14.4648 22.5293C14.5008 22.7543 14.6958 22.9199 14.9238 22.9199C15.1798 22.9199 15.3867 22.713 15.3867 22.457V18.5938C15.3867 18.2907 15.1409 18.0449 14.8379 18.0449C14.5349 18.0449 14.2891 18.2907 14.2891 18.5938V21.918C14.2461 22.008 14.1817 22.0826 14.0938 22.1406C14.0068 22.1996 13.9153 22.2285 13.8203 22.2285C13.7083 22.2285 13.6281 22.1828 13.5801 22.0898C13.5321 21.9978 13.5098 21.842 13.5098 21.625V18.5938ZM21.0742 18.6934C20.9572 18.6934 20.8705 18.7289 20.8145 18.7969C20.7585 18.8659 20.7211 18.9788 20.7031 19.1348C20.6841 19.2908 20.6758 19.5277 20.6758 19.8457V20.1953H21.4785V19.8457C21.4785 19.5327 21.4683 19.2968 21.4473 19.1348C21.4273 18.9728 21.388 18.859 21.332 18.793C21.276 18.727 21.1912 18.6934 21.0742 18.6934ZM17.2988 18.8555C17.3888 18.7705 17.4858 18.7285 17.5918 18.7285C17.7038 18.7285 17.7906 18.7724 17.8516 18.8594C17.9116 18.9464 17.9545 19.0957 17.9785 19.3027C18.0025 19.5097 18.0137 19.8035 18.0137 20.1855V20.8125C18.0137 21.1675 17.9997 21.4474 17.9707 21.6484C17.9417 21.8504 17.8913 21.9931 17.8223 22.0781C17.7533 22.1631 17.6619 22.2051 17.5449 22.2051C17.4539 22.2051 17.3719 22.1826 17.2949 22.1406C17.2179 22.0976 17.1554 22.0342 17.1074 21.9492V19.1816C17.1444 19.0496 17.2088 18.9405 17.2988 18.8555Z" fill="black"/>
</svg>
